<svg id="Capa_1" data-name="Capa 1" xmlns="http://www.w3.org/2000/svg" viewBox="0 0 307.39 307.39"><title>wheel</title>
  <animateTransform attributeType="xml"
                    attributeName="transform"
                    type="rotate"
                    from="0 20 20"
                    to="360 20 20"
                    dur="4s"
                    repeatCount="indefinite"/>
<path d="M419,237.92l21.29,4.48c1.23.26,2.49.59,3.74,1l7.49,2.37,2.8-1.47,17,10c1,.59,1.94,1.12,2.85,1.62.7.39,1.41.79,2.11,1.2l6.29,3.7.7-.15,17.13,14.84a33.77,33.77,0,0,1,2.61,2.56l5.14,5.54,3.63.22L521.86,301a22.51,22.51,0,0,0,2,4.93l3.68,6.61,2.5.78,4.37,15.77c.46,1.64.93,3.46,1.4,5.21l1.86,7.05,1.82,1.18,1.26,25.11a35.14,35.14,0,0,1,0,3.74l-.4,8,1.09,1.16L537,401.89c-.26,1.23-.59,2.49-1,3.74l-2.37,7.5,1.2,2.28-10,17.92-.68,1.23c-.63,1.14-1.17,2.13-1.64,2.89l-4,6.44.41,2-14.62,15.76c-.93,1-2,2-3,3l-5.64,5.24-.13,2.66L478,482.87l-1.73,1c-1,.59-1.91,1.15-2.81,1.65l-6.57,3.65-.84,2.67-19.2,5-5.56,1.46-7.15,1.88-.69,1.09-21.71,1.09c-1.47.07-2.89.07-4.69.07h-7.21l-.74.66-21.58-4.53c-1.36-.29-2.9-.69-4.54-1.12l-.07,0L366,495.67l-.79.4-19.86-9.94c-1-.49-2.07-1.11-3.4-1.94l-6.31-3.95-2,.39L317.76,466c-1-.93-2-2-3-3l-5.18-5.58-2-.11-11.3-18.08c-.81-1.3-1.68-2.77-2.65-4.41l-3.64-6.2-2.42-.78-5.07-19.34-1.09-4.14-.37-1.41-1.87-7.09-1-.67L277,373.3c-.07-1.35-.07-3-.07-4.64v-7.21l-.74-.83,4.66-20.94.1-.4c.31-1.23.88-3.52,1.37-6.47l1-6.06-.24-.48,10-18.91c.69-1.3,1.56-2.78,2.41-4.22l3.66-6.21-.14-.72L313.85,279c.45-.52,1.13-1.19,1.92-2l1.15-1.13,5.16-5.16.08-1.59,18-11.27c1.36-.85,2.92-1.77,4.42-2.65l6-3.55.4-1.18L371.81,244c1.43-.45,3-.86,4.65-1.3l7.2-1.89.65-1,21.76-1.15c.59,0,1.2,0,1.82,0s1.23,0,1.82,0l8.06.42,1.18-1.11m-10-21.39a155.85,155.85,0,0,0-35,4.18l-2.33,3.69c-1.85.49-3.69,1-5.54,1.55l2.82-4a157.06,157.06,0,0,0-32.55,13L335,239c-1.65,1-3.3,1.94-4.86,2.92l1.65-4.37a151.1,151.1,0,0,0-28.08,21l-.2,4.08c-1.36,1.36-2.72,2.62-4,4.08l.39-4.47a149.7,149.7,0,0,0-21.57,27.49l.78,3.89c-1,1.65-1.94,3.3-2.82,5l-.68-4.28a141.74,141.74,0,0,0-8.26,16.81A131.35,131.35,0,0,0,262,326.41l1.65,3.3c-.49,2.91-1.07,5-1.26,5.83-.87-1.07-1.36-1.94-1.94-2.53a137.9,137.9,0,0,0-4.86,32.94l2.43,2.72c0,1.84,0,3.79.1,5.63l-2.62-3.11a152.42,152.42,0,0,0,4.27,34.59l3,1.94,1.46,5.54-3.2-2.33a155.36,155.36,0,0,0,13,32.35l3.3,1.07c1,1.65,1.94,3.3,2.91,4.86l-3.59-1.36a152.31,152.31,0,0,0,20.79,27.79l3.5.2c1.26,1.36,2.62,2.72,4,4l-3.79-.29a150.73,150.73,0,0,0,27.3,21.37l3.5-.68c1.55,1,3.21,1.94,5,2.82l-3.89.58A152.34,152.34,0,0,0,350,512a144,144,0,0,0,15,5.35l3.11-1.55c1.84.48,3.69,1,5.54,1.36L370,518.77a155,155,0,0,0,34.29,5.05l2.72-2.43c1.94,0,3.69,0,5.63-.1l-3.11,2.62A157.7,157.7,0,0,0,444,519.84l2-3.21,5.54-1.46-2.43,3.3a153.57,153.57,0,0,0,32.25-12.73l1.17-3.69c1.75-1,3.3-1.94,5-2.91L486,503.22a156.59,156.59,0,0,0,28-20.69l.2-4.08c1.36-1.26,2.72-2.62,4-4l-.39,4.47a161.4,161.4,0,0,0,21.66-27.3l-.87-4.18c1-1.55,1.85-3.21,2.82-5l.78,4.66a158.64,158.64,0,0,0,8.74-17.78c1.94-4.66,3.69-9.43,5.15-14.19l-2-3.89q.87-2.77,1.46-5.54l2,4.37a155.12,155.12,0,0,0,5.25-34.49l-3.11-3.3a54.2,54.2,0,0,0,0-5.63l3.21,3.79c0-11.75-2.23-27.1-4.86-38.47l-3.89-2.53c-.49-1.85-1-3.69-1.46-5.44l4.08,2.91c-3-11.27-6.41-18.46-11.95-28.85l-4.37-1.36c-1-1.75.29-1-.68-2.62l2.53-.58a152.82,152.82,0,0,0-20.69-28.08l-4.76-.29a52.74,52.74,0,0,0-4.08-4l5.15.49a154.71,154.71,0,0,0-27.4-21.86l-4.66,1c-1.65-1-3.3-1.85-5-2.82l5.15-.19c-5.64-3.21-12.24-7.09-17.68-9.33a135.05,135.05,0,0,0-14.57-5.25l-4.08,2.14q-2.77-.87-5.54-1.46l4.57-2.14A152,152,0,0,0,414,216.62l-3.3,3.11c-.92,0-1.87-.07-2.82-.07s-1.89,0-2.82.07l3.89-3.21Z" transform="translate(-255.47 -216.53)">
</path>
<path id="wheels" d="M507,272.37a138.38,138.38,0,1,0,40.53,97.85A137.47,137.47,0,0,0,507,272.37ZM420.52,382.48,418,384.37l-2.83,1.47-3.25.84-3.35.25-3.16-.48-3-1-2.89-1.7-2.55-2.19L395,379l-1.47-2.83L392.7,373l-.26-3.37.48-3.14,1-3,1.7-2.88,2.2-2.56,2.55-1.88,2.84-1.47,3.25-.84,3.35-.25,3.16.48,3,1,2.9,1.71,2.55,2.19,1.89,2.57,1.47,2.83.84,3.25.25,3.35-.48,3.17-1,3-1.71,2.89Zm10.76-15.92.69-2.18L434.7,366l-2.06,2.4ZM422.22,352l-1-2,3.06-.79.24,3.16Zm-7.94-3.73-1.54-1.32,2.22-1.64,1.27,2.45Zm-8.78-.17-2.18-.69,1.61-2.73,2.4,2.06Zm-8.26,3-2,.15.41-2.72,2.63.83Zm-10,14-1.32,1.53-1.64-2.22,2.45-1.26Zm-3.57,4.16-3,3.44-5.8-3.42,6.36-3.29Zm2.05,2.79,1.35,1.83-.69,2.18-2.73-1.61Zm10.42,16.41,1.05,2-3.06.79-.24-3.16Zm7.94,3.73,1.53,1.32-2.22,1.64-1.27-2.45Zm8.77.16L415,393l-1.61,2.72L411,393.7Zm8.25-3,2-.15-.41,2.72L420,391.1Zm10-14,1.32-1.53,1.63,2.22-2.45,1.26Zm3.57-4.16,3-3.44,5.81,3.42-6.36,3.29Zm5.2-6,5.37-6.25,16.93,2.56L447,369.33Zm-3-1.74L433,361.09l1.23-3.87,7.07,1.07ZM430,359.34l-1.74-1-.15-2,2.73.41Zm-2.15-6.49-.34-4.53,6.52-1.68-2.16,6.82Zm-.6-7.95-.62-8.23,13.79-10.16-5.18,16.32Zm-3.32.86-4.39,1.13-1.87-3.61,5.76-4.24Zm-7.84-5.5-4-7.76,9.63-16.34,1.42,18.92Zm-2.75,2-3.27,2.41-3.45-3,3.42-5.81Zm-9.31-2.79-6.25-5.38,2.56-16.93,7.88,15.2Zm-1.74,3L400,346.36l-3.87-1.23,1.07-7.08Zm-9.44,1.65-8.33-2.65-4.74-18.36,14.38,12.37Zm-.51,3.37-.61,4-4.53.34-1.68-6.52Zm-1.12,7.44-.34,2.25-2,1-.79-3.06Zm-5.44,4.89-3.61,1.87L378,355.91l6.72-.51Zm-6.63,3.44-7.76,4-16.34-9.63L374,356.21Zm-11.3,5.85-17.45,9-62.8-9.52q0-3,.22-5.93l61.33-4.62Zm3.43,2,7.1,4.19-5.38,6.25L356.13,379ZM381.38,377l3.91,2.31-1.23,3.87L377,382.15Zm6.89,4.07,1.74,1,.15,2-2.72-.41Zm2.15,6.49.34,4.53-6.52,1.68,2.17-6.83Zm.6,7.95.62,8.23-13.78,10.16L383,397.61Zm3.32-.86,4.4-1.13,1.87,3.61-5.76,4.25Zm7.84,5.5,4,7.76-9.63,16.34-1.42-18.92Zm2.75-2,3.27-2.41,3.45,3-3.42,5.8Zm9.31,2.79,6.26,5.38-2.57,16.93L410,408.05Zm1.74-3,2.31-3.91,3.87,1.22-1.07,7.08Zm9.43-1.65,8.33,2.64,4.75,18.37L424.11,405Zm.52-3.38.61-4,4.53-.34,1.68,6.52Zm1.12-7.44.34-2.25,2-1.05.8,3.06Zm5.44-4.89,3.61-1.87,4.25,5.76-6.72.51Zm6.63-3.44,7.76-4,16.34,9.63-18.92,1.42Zm11.3-5.85,17.44-9,62.8,9.51q0,3-.22,5.93l-61.34,4.62ZM473,359.67l51.85-26.87a121.31,121.31,0,0,1,5.85,35.6Zm-5.67-.86-19.43-2.94L462,339.42,521.59,324q1.12,2.74,2.12,5.54Zm-23.36-3.54L435.29,354l2.64-8.33,18.36-4.74Zm-4.79-13.43,5.94-18.73,51.14-37.68q2.07,2.12,4,4.36l-40.11,46.63Zm7.68-24.2L464.48,262a121.8,121.8,0,0,1,29.32,21Zm-4.62,3.4-15.82,11.66-1.63-21.64,31.25-53q2.74,1.15,5.42,2.42Zm-17.89-15.87-4.21-56a120.86,120.86,0,0,1,32.74,7.6Zm-3,5.09-11,18.69-9-17.44,9.51-62.8c2,0,4,.1,5.94.22Zm-22.7-3.85-26.87-51.85a121.38,121.38,0,0,1,35.6-5.85Zm-.86,5.67-2.94,19.43-16.45-14.16L363,257.79q2.74-1.12,5.54-2.12Zm-23.87,1.42-42.56-36.61a121.5,121.5,0,0,1,28.52-17.78Zm1.48,5.72,5.42,21L362,334.3l-37.68-51.13q2.13-2.07,4.35-4Zm6.42,24.86,2.06,8-8.22.62-10.16-13.78ZM371.64,353,350,354.63l-53-31.25q1.15-2.74,2.42-5.42L360,337.18Zm-27.53,2.07-56,4.22a121,121,0,0,1,7.6-32.75Zm1.24,25.7-51.85,26.87a121.28,121.28,0,0,1-5.85-35.6Zm5.67.86,19.43,2.94L356.31,401l-59.58,15.38q-1.12-2.74-2.12-5.54Zm23.36,3.54,8.64,1.31-2.64,8.33L362,399.55Zm4.79,13.43-5.94,18.73L322.11,455q-2.07-2.13-4-4.35L358.17,404Zm-7.68,24.2-17.66,55.66a121.71,121.71,0,0,1-29.32-21Zm4.62-3.4,15.82-11.65,1.63,21.64-31.25,53q-2.74-1.14-5.42-2.42ZM394,435.26l4.21,56a120.83,120.83,0,0,1-32.74-7.6Zm3-5.09,11-18.69,9,17.45-9.51,62.8q-3,0-5.94-.21Zm22.7,3.85,26.87,51.85A121.38,121.38,0,0,1,411,491.73Zm.86-5.67,2.94-19.43L440,423.07l15.39,59.58q-2.74,1.12-5.55,2.12Zm23.87-1.42L487,463.54a121.41,121.41,0,0,1-28.53,17.78ZM443,421.21l-5.43-21,18.73,5.94,37.68,51.14q-2.13,2.07-4.35,4Zm-6.42-24.86-2.07-8,8.23-.62,10.15,13.78Zm10.12-8.9,21.64-1.63,53,31.25q-1.14,2.75-2.42,5.42l-60.58-19.23Zm27.53-2.07,56-4.21a121,121,0,0,1-7.6,32.74Zm46.06-64.48-54.4,14,36.62-42.57A121.67,121.67,0,0,1,520.26,320.9ZM322,285.58l34.63,47L300.92,314.9A122,122,0,0,1,322,285.58Zm-23.9,134,54.39-14-36.62,42.57A121.47,121.47,0,0,1,298.06,419.54Zm198.29,35.31-34.63-47,55.67,17.67A121.55,121.55,0,0,1,496.36,454.86Z" transform="translate(-255.47 -216.53)">
</path>
</svg>